<svg width="108" height="108" viewBox="0 0 108 108" fill="none" xmlns="http://www.w3.org/2000/svg">
<path d="M34.8 80.6667L54 61.4667L73.2 80.6667L80.6666 73.2L61.4667 54L80.6666 34.8L73.2 27.3334L54 46.5334L34.8 27.3334L27.3333 34.8L46.5333 54L27.3333 73.2L34.8 80.6667ZM54 107.333C46.6222 107.333 39.6889 105.933 33.2 103.133C26.7111 100.333 21.0667 96.5333 16.2667 91.7333C11.4667 86.9333 7.66666 81.2889 4.86666 74.8C2.06666 68.3111 0.666656 61.3778 0.666656 54C0.666656 46.6222 2.06666 39.6889 4.86666 33.2C7.66666 26.7111 11.4667 21.0667 16.2667 16.2667C21.0667 11.4667 26.7111 7.66669 33.2 4.86669C39.6889 2.06669 46.6222 0.666687 54 0.666687C61.3778 0.666687 68.3111 2.06669 74.8 4.86669C81.2889 7.66669 86.9333 11.4667 91.7333 16.2667C96.5333 21.0667 100.333 26.7111 103.133 33.2C105.933 39.6889 107.333 46.6222 107.333 54C107.333 61.3778 105.933 68.3111 103.133 74.8C100.333 81.2889 96.5333 86.9333 91.7333 91.7333C86.9333 96.5333 81.2889 100.333 74.8 103.133C68.3111 105.933 61.3778 107.333 54 107.333ZM54 96.6667C65.9111 96.6667 76 92.5333 84.2667 84.2667C92.5333 76 96.6666 65.9111 96.6666 54C96.6666 42.0889 92.5333 32 84.2667 23.7334C76 15.4667 65.9111 11.3334 54 11.3334C42.0889 11.3334 32 15.4667 23.7333 23.7334C15.4667 32 11.3333 42.0889 11.3333 54C11.3333 65.9111 15.4667 76 23.7333 84.2667C32 92.5333 42.0889 96.6667 54 96.6667Z" fill="#641C34"/>
</svg>
