<svg width="20" height="21" viewBox="0 0 20 21" fill="none" xmlns="http://www.w3.org/2000/svg">
<path fill-rule="evenodd" clip-rule="evenodd" d="M10 0.75C4.61522 0.75 0.25 5.11522 0.25 10.5C0.25 15.8848 4.61522 20.25 10 20.25C15.3848 20.25 19.75 15.8848 19.75 10.5C19.7443 5.11758 15.3824 0.755684 10 0.75ZM10 18.75C5.44365 18.75 1.75 15.0563 1.75 10.5C1.75 5.94365 5.44365 2.25 10 2.25C14.5563 2.25 18.25 5.94365 18.25 10.5C18.2448 15.0542 14.5542 18.7448 10 18.75ZM9.25 11.25V6C9.25 5.58579 9.58579 5.25 10 5.25C10.4142 5.25 10.75 5.58579 10.75 6V11.25C10.75 11.6642 10.4142 12 10 12C9.58579 12 9.25 11.6642 9.25 11.25ZM11.125 14.625C11.125 15.2463 10.6213 15.75 10 15.75C9.37868 15.75 8.875 15.2463 8.875 14.625C8.875 14.0037 9.37868 13.5 10 13.5C10.6213 13.5 11.125 14.0037 11.125 14.625Z" fill="#171212"/>
</svg>
