<svg width="20" height="20" viewBox="0 0 20 20" fill="none" xmlns="http://www.w3.org/2000/svg">
<path fill-rule="evenodd" clip-rule="evenodd" d="M13.75 8.5C13.75 11.3995 11.3995 13.75 8.5 13.75C5.6005 13.75 3.25 11.3995 3.25 8.5C3.25 5.6005 5.6005 3.25 8.5 3.25C11.3995 3.25 13.75 5.6005 13.75 8.5ZM19.5306 19.5306C19.3899 19.6715 19.1991 19.7506 19 19.7506C18.8009 19.7506 18.6101 19.6715 18.4694 19.5306L13.7762 14.8366C10.3858 17.6572 5.37647 17.3124 2.40446 14.0538C-0.567553 10.7952 -0.451056 5.77538 2.66892 2.65816C5.7889 -0.459059 10.8088 -0.571119 14.0648 2.40377C17.3208 5.37866 17.6611 10.3883 14.8375 13.7762L19.5306 18.4694C19.6715 18.6101 19.7506 18.8009 19.7506 19C19.7506 19.1991 19.6715 19.3899 19.5306 19.5306ZM8.5 15.25C12.2279 15.25 15.25 12.2279 15.25 8.5C15.25 4.77208 12.2279 1.75 8.5 1.75C4.77208 1.75 1.75 4.77208 1.75 8.5C1.75413 12.2262 4.77379 15.2459 8.5 15.25Z" fill="#333333"/>
</svg>
