<?xml version="1.0" encoding="UTF-8" standalone="no"?>
<!-- Created with Inkscape (http://www.inkscape.org/) -->

<svg
   width="108.00001mm"
   height="108.00001mm"
   viewBox="0 0 108.00001 108.00001"
   version="1.1"
   id="svg5"
   xml:space="preserve"
   inkscape:version="1.2.2 (b0a84865, 2022-12-01)"
   sodipodi:docname="esmorga_icons.svg"
   xmlns:inkscape="http://www.inkscape.org/namespaces/inkscape"
   xmlns:sodipodi="http://sodipodi.sourceforge.net/DTD/sodipodi-0.dtd"
   xmlns="http://www.w3.org/2000/svg"
   xmlns:svg="http://www.w3.org/2000/svg"><sodipodi:namedview
     id="namedview7"
     pagecolor="#ffffff"
     bordercolor="#666666"
     borderopacity="1.0"
     inkscape:showpageshadow="2"
     inkscape:pageopacity="0.0"
     inkscape:pagecheckerboard="0"
     inkscape:deskcolor="#d1d1d1"
     inkscape:document-units="mm"
     showgrid="false"
     inkscape:zoom="1.5460477"
     inkscape:cx="233.17521"
     inkscape:cy="779.73016"
     inkscape:window-width="1920"
     inkscape:window-height="1027"
     inkscape:window-x="0"
     inkscape:window-y="25"
     inkscape:window-maximized="0"
     inkscape:current-layer="layer1" /><defs
     id="defs2" /><g
     inkscape:label="Layer 1"
     inkscape:groupmode="layer"
     id="layer1"
     transform="translate(-17.182105,-11.291699)"><rect
       style="fill:#1f0d59;fill-opacity:1;stroke-width:2.88382"
       id="rect58144"
       width="108"
       height="108"
       x="17.182104"
       y="11.291699"
       inkscape:export-filename="background.svg"
       inkscape:export-xdpi="18"
       inkscape:export-ydpi="18" /><path
       style="opacity:1;fill:#ffffff;fill-opacity:1;stroke-width:0.0710526"
       d="m 68.134466,29.490444 c -10.204544,-11.770768 14.75783,-12.389482 4.755616,-0.03015 l 17.595633,34.700337 c 4.38351,33.41831 -43.824378,32.39877 -39.964595,0.74131 z"
       id="path394"
       sodipodi:nodetypes="ccccc" /><path
       style="opacity:0.75;fill:#fa3c3c;fill-opacity:1;stroke-width:0.0710526"
       d="m 75.641389,34.909228 3.266077,6.211294 -22.94944,12.870115 5.790495,-11.689002 z"
       id="path1046"
       sodipodi:nodetypes="ccccc" /><path
       style="opacity:0.75;fill:#fa3c3c;fill-opacity:1;stroke-width:0.0710526"
       d="m 82.509649,48.471582 3.304746,6.327293 -18.228463,9.991126 -16.713723,0.0429 z"
       id="path1046-7"
       sodipodi:nodetypes="ccccc" /><path
       style="opacity:1;fill:#000000;fill-opacity:1;stroke-width:0.0710526"
       d="m 64.494631,67.936971 c -2.548689,0 -2.486906,3.70023 -4.9e-5,3.70023 2.486856,0 2.548743,-3.70023 4.9e-5,-3.70023 z"
       id="path2057"
       sodipodi:nodetypes="zzz" /><path
       style="fill:#f9cf6a;fill-opacity:1;stroke-width:0.0927549"
       d="m 41.505346,72.812811 c -3.327144,0 -3.24649,4.8304 -6.5e-5,4.8304 3.246429,0 3.327218,-4.8304 6.5e-5,-4.8304 z"
       id="path2057-80"
       sodipodi:nodetypes="zzz" /><path
       style="fill:#f9cf6a;fill-opacity:1;stroke-width:0.0927549"
       d="m 102.25987,67.248941 c -3.327145,0 -3.246495,4.8304 -7e-5,4.8304 3.24643,0 3.32722,-4.8304 7e-5,-4.8304 z"
       id="path2057-80-2"
       sodipodi:nodetypes="zzz" /><path
       style="fill:#faec89;fill-opacity:1;stroke-width:0.0855209"
       d="m 39.005948,30.142541 c -3.067659,0 -2.993291,4.453667 -5.8e-5,4.453667 2.993239,0 3.067725,-4.453667 5.8e-5,-4.453667 z"
       id="path2057-80-4"
       sodipodi:nodetypes="zzz" /><path
       style="fill:#fc4c84;fill-opacity:1;stroke-width:0.0855209"
       d="m 56.693975,30.330904 c -3.06766,0 -2.993292,4.453667 -5.9e-5,4.453667 2.993239,0 3.067725,-4.453667 5.9e-5,-4.453667 z"
       id="path2057-80-4-8"
       sodipodi:nodetypes="zzz" /><path
       style="fill:#fc4c84;fill-opacity:1;stroke-width:0.0855209"
       d="m 94.569415,74.743231 c -3.06766,0 -2.99329,4.45367 -5e-5,4.45367 2.99324,0 3.06772,-4.45367 5e-5,-4.45367 z"
       id="path2057-80-4-8-3"
       sodipodi:nodetypes="zzz" /><path
       style="fill:#fc4c84;fill-opacity:1;stroke-width:0.0559861"
       d="m 111.08795,40.905267 c -2.00824,0 -1.95955,2.915582 -4e-5,2.915582 1.95952,0 2.00828,-2.915582 4e-5,-2.915582 z"
       id="path2057-80-4-8-3-9"
       sodipodi:nodetypes="zzz" /><path
       style="fill:#b2149d;fill-opacity:1;stroke-width:0.0559861"
       d="m 56.693966,38.021348 c -2.008239,0 -1.959553,2.915581 -4.3e-5,2.915581 1.959518,0 2.008282,-2.915581 4.3e-5,-2.915581 z"
       id="path2057-80-4-8-3-9-0"
       sodipodi:nodetypes="zzz" /><path
       style="fill:#3792ff;fill-opacity:1;stroke-width:0.0559861"
       d="m 31.507758,34.176125 c -2.008239,0 -1.959554,2.915583 -4.3e-5,2.915583 1.959518,0 2.008282,-2.915583 4.3e-5,-2.915583 z"
       id="path2057-80-4-8-3-9-5"
       sodipodi:nodetypes="zzz" /><path
       style="fill:#3792ff;fill-opacity:1;stroke-width:0.0559861"
       d="m 49.195783,53.209975 c -2.008238,0 -1.959553,2.915588 -4.2e-5,2.915588 1.959518,0 2.008281,-2.915588 4.2e-5,-2.915588 z"
       id="path2057-80-4-8-3-9-5-2"
       sodipodi:nodetypes="zzz" /><path
       style="fill:#65faf4;fill-opacity:1;stroke-width:0.0559861"
       d="m 31.315497,71.474781 c -2.008238,0 -1.959553,2.91559 -4.2e-5,2.91559 1.959518,0 2.008281,-2.91559 4.2e-5,-2.91559 z"
       id="path2057-80-4-8-3-9-5-27"
       sodipodi:nodetypes="zzz" /><path
       style="fill:#65faf4;fill-opacity:1;stroke-width:0.0559861"
       d="m 111.29613,63.784341 c -2.00824,0 -1.95956,2.91559 -4e-5,2.91559 1.95951,0 2.00828,-2.91559 4e-5,-2.91559 z"
       id="path2057-80-4-8-3-9-5-27-3"
       sodipodi:nodetypes="zzz" /><path
       style="fill:#594ae0;fill-opacity:1;stroke-width:0.0559861"
       d="m 43.235687,68.206341 c -2.008238,0 -1.959553,2.91558 -4.2e-5,2.91558 1.959518,0 2.008281,-2.91558 4.2e-5,-2.91558 z"
       id="path2057-80-4-8-3-9-5-3"
       sodipodi:nodetypes="zzz" /><path
       style="fill:#594ae0;fill-opacity:1;stroke-width:0.0559861"
       d="m 87.840275,44.1737 c -2.00824,0 -1.95955,2.915581 -4e-5,2.915581 1.95951,0 2.00828,-2.915581 4e-5,-2.915581 z"
       id="path2057-80-4-8-3-9-5-3-9"
       sodipodi:nodetypes="zzz" /><path
       style="fill:#594ae0;fill-opacity:1;stroke-width:0.0559861"
       d="m 83.418271,35.906476 c -2.008239,0 -1.959554,2.915582 -4.3e-5,2.915582 1.959517,0 2.008277,-2.915582 4.3e-5,-2.915582 z"
       id="path2057-80-4-8-3-9-5-3-9-0"
       sodipodi:nodetypes="zzz" /><path
       style="fill:#f9fef9;fill-opacity:1;stroke-width:0.0559861"
       d="m 83.995055,31.292208 c -2.008239,0 -1.959554,2.915581 -4e-5,2.915581 1.95951,0 2.00828,-2.915581 4e-5,-2.915581 z"
       id="path2057-80-4-8-3-9-5-3-9-2"
       sodipodi:nodetypes="zzz" /><path
       style="fill:#3792ff;fill-opacity:1;stroke-width:0.0559861"
       d="m 104.18247,53.402243 c -2.00824,0 -1.95956,2.915581 -5e-5,2.915581 1.95952,0 2.00828,-2.915581 5e-5,-2.915581 z"
       id="path2057-80-4-8-3-9-5-7"
       sodipodi:nodetypes="zzz" /><path
       style="opacity:1;fill:#000000;fill-opacity:1;stroke-width:0.0710526"
       d="m 77.880947,67.916001 c -2.548693,0 -2.486906,3.70022 -5e-5,3.70022 2.486857,0 2.548744,-3.70022 5e-5,-3.70022 z"
       id="path2057-8"
       sodipodi:nodetypes="zzz" /><path
       style="opacity:1;fill:#000000;fill-opacity:1;stroke-width:0.0710526"
       d="m 64.399634,75.675281 c 0.123724,-0.003 12.875128,0.0393 12.962451,0.0232 0,4.97875 -2.235642,6.54657 -6.356745,6.54657 -4.121102,0 -6.596491,-1.6442 -6.605706,-6.56975 z"
       id="path2870"
       sodipodi:nodetypes="cczc" /><path
       style="fill:none;fill-opacity:1;stroke:#bce5f2;stroke-width:2.84211;stroke-dasharray:none;stroke-opacity:1"
       d="m 89.824505,65.036581 c 5.91822,32.16459 -43.628866,30.84801 -38.294851,0.34799 3.288855,0.95595 35.552681,0.57257 38.294851,-0.34799 z"
       id="path394-5"
       sodipodi:nodetypes="ccc" /><path
       style="opacity:0.5;fill:#c4f1f7;fill-opacity:1;stroke:none;stroke-width:2.84211;stroke-dasharray:none;stroke-opacity:1"
       d="m 72.882892,29.450896 c 0.415437,0.869319 1.179999,2.330247 1.62108,3.196283 l -7.92067,-0.01703 c 0.398143,-0.779783 0.955238,-1.997373 1.524512,-3.139438 -0.854856,-1.036463 -1.598258,-2.184828 -1.930102,-2.927421 2.800092,0.662507 5.647497,0.61533 8.533186,-0.0061 -0.623636,1.488895 -1.363073,2.303694 -1.828006,2.893715 z"
       id="path394-5-3"
       sodipodi:nodetypes="cccccccc" /><path
       id="path8564"
       style="opacity:1;fill:#ffffff;fill-opacity:1;stroke:none;stroke-width:2.84211;stroke-opacity:1"
       d="m 36.507186,95.130931 c -4.0295,0.044 -5.755214,3.08933 -5.754361,6.819169 8.53e-4,3.78903 1.85496,4.71909 3.343859,5.73857 1.4889,1.01948 4.609231,1.16206 6.475493,-0.0815 1.866262,-1.24356 0.781453,-3.8777 -1.341657,-3.18377 -2.123109,0.69392 -3.519512,0.87904 -4.403525,-1.27079 0.853322,-0.006 5.543067,-0.0911 6.002571,-0.1465 2.640413,-2.75386 0.03903,-7.822419 -4.128879,-7.875159 -0.06512,-7.1e-4 -0.129541,-7e-4 -0.193501,0 z m -0.02276,3.47384 c 0.787773,-0.003 1.579115,0.48176 1.635029,1.502109 l -3.249496,0.008 c -0.0071,-0.986399 0.801686,-1.507709 1.614467,-1.510549 z" /><path
       style="opacity:1;fill:#ffffff;fill-opacity:1;stroke:none;stroke-width:2.84211;stroke-opacity:1"
       d="m 50.93452,96.251391 c -1.028885,-1.23628 -1.989161,-1.26265 -3.945625,-1.26977 -1.956464,-0.007 -4.542815,1.40032 -4.486728,4.22862 0.05609,2.828279 3.30017,4.050829 4.805085,4.305529 1.504915,0.2547 0.742843,1.40097 0.01375,1.46832 -0.729095,0.0674 -1.854013,-0.79971 -3.060169,-0.74894 -1.206156,0.0508 -2.234747,2.03554 -1.106223,2.88483 1.128524,0.84928 2.423036,1.81024 4.902761,1.30126 2.479724,-0.50897 3.795542,-1.68939 3.963595,-4.64449 0.168052,-2.9551 -4.098667,-3.48226 -4.978846,-3.905669 -0.880179,-0.42342 -0.638795,-1.64869 0.344955,-1.4586 0.98375,0.19009 1.994001,0.48332 2.623332,0.4634 0.629331,-0.0199 1.952999,-1.3882 0.924113,-2.62449 z"
       id="path9227"
       sodipodi:nodetypes="zzzzzzzzzzzzz" /><path
       id="path9229"
       style="opacity:1;fill:#ffffff;fill-opacity:1;stroke:none;stroke-width:2.84211;stroke-opacity:1"
       d="m 54.623583,94.934121 c -0.9311,-0.0127 -1.903164,0.59532 -1.936846,1.7808 v -0.25886 c -0.05988,2.10752 -0.09488,7.576239 -0.01469,10.221769 0.0802,2.64554 3.917633,2.58085 3.953737,-0.18101 0.0361,-2.76186 0.06778,-3.7703 0.03818,-6.24454 -0.0217,-1.814079 2.857945,-1.473229 2.82651,-0.0922 -0.03773,1.65767 -0.0307,4.81491 0.04957,6.47696 0.13102,2.71303 4.081751,2.55857 4.048835,0.18212 -0.03292,-2.37646 -0.07149,-3.69313 -0.08445,-6.22949 -0.0091,-1.784639 2.807507,-1.937999 2.792728,-0.04 -0.05265,6.76369 4.005386,7.62015 6.172207,7.70772 1.096698,0.0443 6.730944,-0.45915 6.602168,-6.68588 -0.128783,-6.226739 -7.14177,-8.409979 -10.71269,-4.500089 -2.177849,-2.76341 -5.049154,-2.2024 -6.640718,-0.61355 -1.554601,-1.40527 -3.859292,-1.9276 -5.45695,-0.34808 -0.213815,-0.78062 -0.91341,-1.16588 -1.637599,-1.1757 z m 18.016529,4.07637 c 3.208147,-0.0457 3.749163,5.453139 0.06061,5.495139 -3.244491,0.0369 -3.268734,-5.449379 -0.06061,-5.495139 z"
       sodipodi:nodetypes="sccsssssssssscccssss" /><path
       id="path9229-0"
       style="opacity:1;fill:#ffffff;fill-opacity:1;stroke:none;stroke-width:2.84211;stroke-opacity:1"
       d="m 81.56757,95.001641 c -0.931102,-0.0126 -1.903166,0.59532 -1.936845,1.7808 v -0.25886 c -0.0599,2.10752 -0.09488,7.576239 -0.01471,10.221769 0.08019,2.64554 3.99156,2.58086 4.02766,-0.18101 0.0361,-2.76186 0.10475,-3.65941 0.0751,-6.13365 -0.0217,-1.814079 3.07831,-1.598299 2.82652,-0.24001 -0.44434,2.39696 0.34324,5.13202 2.37836,6.51392 1.74631,1.18579 3.74907,1.41267 5.49046,0.40391 -0.63007,3.95622 -4.011,1.79203 -5.31631,0.98469 -1.17455,-0.72646 -3.06485,1.29621 -1.92296,2.77129 2.80599,3.62472 11.11287,2.89661 11.12953,-3.094 0.0112,-4.03008 0.0582,-4.41346 -0.0145,-10.641099 -0.0179,-1.53224 -2.00369,-3.86334 -3.72639,-0.87756 -1.62337,-1.8393 -4.30985,-1.31525 -5.90142,0.2736 -1.36977,-1.66402 -3.85928,-1.9276 -5.456946,-0.34808 -0.213812,-0.78061 -0.91341,-1.16588 -1.6376,-1.1757 z m 11.288975,4.03941 c 2.02528,0.0281 1.79004,4.861709 -0.0503,4.940669 -3.24172,0.1391 -3.15786,-4.985299 0.0503,-4.940669 z"
       sodipodi:nodetypes="sccssssscsssscccsssss" /><path
       id="path9305"
       style="opacity:1;fill:#ffffff;fill-opacity:1;stroke:none;stroke-width:2.84211;stroke-opacity:1"
       d="m 103.95974,94.957621 c -0.89564,0.002 -1.79056,0.16795 -2.63228,0.46778 -2.608435,0.92917 -1.21436,3.43688 -0.0213,3.45144 1.6774,0.0205 4.25667,-1.361 4.64479,1.166449 -0.2915,0.0539 -2.35208,-0.006 -3.48893,0.003 -1.88738,0.0239 -3.494275,2.06902 -3.464645,4.25408 0.0341,2.51409 4.216305,6.45694 7.049375,2.93189 0.38529,1.92977 3.83605,1.96933 3.83588,-0.55994 -2.3e-4,-3.14492 0.59113,-7.936489 -1.1522,-9.735639 -1.34853,-1.3917 -3.06085,-1.98306 -4.77069,-1.9787 z m 0.27133,7.980539 c 0.57946,-0.006 1.22609,0.13382 1.64788,0.0977 0.0854,2.58502 -2.92424,2.36378 -2.93776,1.11841 -0.0107,-0.99135 0.59055,-1.20931 1.28988,-1.21608 z"
       sodipodi:nodetypes="sscccscsssscss" /><path
       style="fill:#fd4f85;fill-opacity:1;stroke-width:2.84211"
       d="m 31.385136,24.380376 c -3.718812,0.79338 -1.613244,7.608822 1.974815,6.042557 1.604413,-0.70036 0.843915,-2.418843 -0.273464,-2.646764 -0.732452,-0.149405 -0.55496,-0.88807 -0.37266,-1.086243 0.667724,-0.725869 0.943339,-2.794271 -1.328691,-2.30955 z"
       id="path18448"
       sodipodi:nodetypes="sssss" /><path
       style="fill:#4fd6fb;fill-opacity:1;stroke-width:2.84211"
       d="m 113.11184,88.308131 c 2.77577,-2.59888 -2.54524,-7.34973 -4.81011,-4.15635 -1.01275,1.42793 0.52557,2.50735 1.60026,2.12588 0.70447,-0.25007 0.93367,0.47422 0.87982,0.73805 -0.1973,0.96634 0.63417,2.88022 2.33003,1.29242 z"
       id="path18448-7"
       sodipodi:nodetypes="sssss" /><path
       style="fill:#f8fadc;fill-opacity:1;stroke-width:2.84211"
       d="m 105.50672,50.252274 c -0.13267,3.800179 7.94666,3.185645 7.23506,-0.664157 -0.2365,-1.279452 -2.26694,-1.065925 -2.75917,-0.03723 -0.32266,0.674304 -1.68788,0.120633 -1.91295,-0.02721 -1.18037,-0.775376 -2.49414,-0.792336 -2.56294,0.728602 z"
       id="path18448-2"
       sodipodi:nodetypes="csssc" /><path
       style="fill:#54daff;fill-opacity:1;stroke-width:2.84211"
       d="m 35.288292,39.791638 c -2.400905,-1.944133 -7.528704,1.985519 -5.700582,4.669388 1.248777,1.833332 2.355137,0.49442 2.617694,-0.615341 0.175705,-0.742659 0.694751,-1.3348 1.821079,-1.291951 1.411239,0.05369 3.135169,-1.245144 1.261809,-2.762096 z"
       id="path18448-2-8"
       sodipodi:nodetypes="sssss" /><path
       style="fill:#fee884;fill-opacity:1;stroke-width:2.84211"
       d="m 35.954082,69.994741 c 1.92476,-3.27937 -6.181819,-7.08854 -7.387603,-3.36383 -0.400728,1.23788 1.278021,1.90996 2.384962,1.63576 0.798115,-0.19771 1.711294,-0.004 2.104971,0.88571 0.571209,1.29159 2.113523,2.14739 2.89767,0.84236 z"
       id="path18448-2-1"
       sodipodi:nodetypes="csssc" /><path
       style="fill:#fe6696;fill-opacity:1;stroke-width:2.84211"
       d="m 104.01044,79.433271 c -1.87221,-3.30965 -9.790165,0.98126 -7.241815,5.19287 0.67358,1.11321 2.61853,1.10623 2.84341,-1.33618 0.0754,-0.81877 1.275155,-1.57687 2.216645,-1.33067 2.00782,0.52506 3.52161,-0.44993 2.18176,-2.52602 z"
       id="path18448-2-1-1"
       sodipodi:nodetypes="csssc" /><path
       style="fill:#84fcf7;fill-opacity:1;stroke-width:2.84211"
       d="m 95.742325,34.500609 c -2.6061,-2.768966 -9.27532,3.283098 -5.79784,6.767191 0.91916,0.920914 2.80656,0.451239 2.4437,-1.974516 -0.12165,-0.813183 0.86323,-1.835045 1.83626,-1.819987 2.07508,0.03212 3.31333,-1.275128 1.51788,-2.972688 z"
       id="path18448-2-1-1-4"
       sodipodi:nodetypes="csssc" /><path
       style="fill:#74fcf5;fill-opacity:1;stroke-width:2.84211"
       d="m 37.644054,82.173821 c 0.196705,-3.7974 -8.787162,-4.42675 -8.897487,0.49459 -0.02916,1.3008 1.615641,2.33882 3.116312,0.39874 0.503067,-0.65038 1.922277,-0.64607 2.584517,0.067 1.412288,1.52068 3.212852,1.51053 3.196658,-0.96032 z"
       id="path18448-2-1-1-0"
       sodipodi:nodetypes="csssc" /><path
       style="fill:#f53f84;fill-opacity:1;stroke-width:2.99377"
       d="m 29.549219,58.455336 c 3.400581,2.302005 9.997453,-4.404112 5.493625,-7.2738 -1.190448,-0.758515 -3.256583,-0.05258 -2.456144,2.224182 0.268334,0.763233 -0.685323,1.876407 -1.791719,1.993751 -2.3595,0.250247 -3.554892,1.671364 -1.245762,3.055867 z"
       id="path18448-2-1-1-46"
       sodipodi:nodetypes="csssc" /><path
       style="fill:#ff5f93;fill-opacity:1;stroke-width:2.99377"
       d="m 110.61472,70.569041 c -3.91084,1.25243 -2.71168,10.58264 2.32704,8.81323 1.33184,-0.46768 2.05288,-2.5286 -0.23205,-3.30541 -0.76598,-0.26041 -1.05236,-1.69798 -0.46124,-2.64057 1.26061,-2.01015 0.88137,-3.82804 -1.63375,-2.86725 z"
       id="path18448-2-1-1-46-0"
       sodipodi:nodetypes="csssc" /><path
       style="fill:#ff6996;fill-opacity:1;stroke-width:2.99377"
       d="m 46.366909,31.503343 c 6.213562,1.613902 9.383764,-7.86798 5.832857,-9.427931 -2.0288,-0.891273 -3.277949,0.543223 -2.278994,2.740139 0.744734,1.637828 -1.085421,3.638579 -2.843685,3.476665 -2.639607,-0.243074 -3.316097,2.534269 -0.710178,3.211127 z"
       id="path18448-2-1-1-46-0-3"
       sodipodi:nodetypes="sssss" /><path
       style="fill:#fee578;fill-opacity:1;stroke-width:2.97371"
       d="m 99.648035,62.150581 c 4.123765,-6.453089 -4.47711,-11.501719 -6.90752,-8.519569 -1.3886,1.703835 -0.32867,3.262211 2.05253,2.874732 1.77522,-0.288864 3.50159,1.968407 1.93938,4.143677 -1.52813,2.12781 1.48042,3.74704 2.91561,1.50116 z"
       id="path18448-2-1-1-46-0-3-9"
       sodipodi:nodetypes="sssss" /><path
       style="fill:#f9c16d;fill-opacity:1;stroke-width:2.97371"
       d="m 49.123015,80.951861 c -7.245538,-2.47993 -10.115915,7.07123 -6.643412,8.72709 1.983995,0.94605 3.247354,-0.45249 2.307499,-2.6744 -0.70067,-1.65648 1.084064,-3.8679 3.567184,-2.86469 2.428948,0.98131 3.290398,-2.32491 0.768726,-3.188 z"
       id="path18448-2-1-1-46-0-3-9-1"
       sodipodi:nodetypes="sssss" /><path
       style="fill:#fce279;fill-opacity:1;stroke-width:2.97371"
       d="m 44.784928,57.260089 c -6.877641,-1.455002 -9.184287,7.108492 -5.711784,8.764352 1.983994,0.94606 3.247354,-0.45249 2.307499,-2.6744 -0.70067,-1.65648 0.238289,-3.005 2.896412,-2.67836 2.202647,0.27066 3.130207,-2.856821 0.507873,-3.411592 z"
       id="path18448-2-1-1-46-0-3-9-1-3"
       sodipodi:nodetypes="sssss" /><path
       style="fill:#ef5091;fill-opacity:1;stroke-width:2.97371"
       d="m 43.873837,52.204431 c 2.180281,-6.683209 -6.088333,-9.890093 -8.105122,-6.614018 -1.152278,1.871774 0.103535,3.277095 2.413022,2.579593 1.721763,-0.519992 2.962435,0.557443 2.354142,3.165565 -0.504053,2.161215 2.506649,3.417063 3.337958,0.86886 z"
       id="path18448-2-1-1-46-0-3-9-1-3-3"
       sodipodi:nodetypes="sssss" /><path
       style="fill:#fadb7c;fill-opacity:1;stroke-width:2.97371"
       d="m 85.459225,28.166216 c 4.21045,5.629483 11.59194,0.713412 10.07363,-2.821394 -0.86747,-2.019599 -2.73948,-1.801471 -3.49832,0.488597 -0.56572,1.707281 -2.16089,2.101743 -3.94362,0.103199 -1.47726,-1.656087 -4.23706,0.08316 -2.63169,2.229598 z"
       id="path18448-2-1-1-46-0-3-9-1-3-3-5"
       sodipodi:nodetypes="sssss" /><path
       style="fill:#90fcfc;fill-opacity:1;stroke-width:2.97371"
       d="m 50.163971,49.049836 c 5.597387,-4.253016 2.492694,-12.843001 -2.748043,-13.010458 -3.916279,-0.125136 -3.035023,3.525063 -0.626221,3.658872 1.795803,0.09977 4.010195,4.436182 1.726736,5.791836 -3.553027,2.109381 -1.718814,6.117567 1.647528,3.55975 z"
       id="path18448-2-1-1-46-0-3-9-1-3-3-8"
       sodipodi:nodetypes="sssss" /><path
       style="fill:#90fdf5;fill-opacity:1;stroke-width:2.97371"
       d="m 104.93331,25.568378 c -4.04553,5.749136 1.51606,12.994526 6.56116,11.566111 3.77008,-1.067421 1.82421,-4.278983 -0.51187,-3.676613 -1.74161,0.449073 -5.16587,-3.012493 -3.40055,-4.996324 2.74683,-3.086818 -0.21567,-6.350782 -2.64871,-2.893177 z"
       id="path18448-2-1-1-46-0-3-9-1-3-3-8-3"
       sodipodi:nodetypes="sssss" /><path
       style="fill:#fee67c;fill-opacity:1;stroke-width:2.69593"
       d="m 113.01613,58.497499 c -4.44171,-3.700272 -10.66453,2.806162 -8.37101,5.440192 1.31039,1.50493 2.87866,0.81604 2.90843,-1.35702 0.0222,-1.62007 2.28116,-2.547128 3.65121,-1.74017 2.0568,1.21146 3.67418,-0.79114 1.81137,-2.343002 z"
       id="path18448-2-1-1-46-0-3-9-4"
       sodipodi:nodetypes="sssss" /><path
       style="fill:#ff6596;fill-opacity:1;stroke-width:2.84211"
       d="m 100.92163,43.181583 c 0.42864,0.833159 0.95884,2.162863 1.11265,2.589638 0.41017,1.138176 0.0768,3.346819 -1.45649,3.337617 -0.53894,-0.0036 -4.554225,0.126652 -5.170115,0.09402 -2.25627,-0.119567 -2.36678,-3.663959 0.33578,-3.653294 0.52655,0.0021 1.40069,-0.0265 2.17003,-0.03467 -1.56728,-2.094498 -1.78525,-5.76639 0.98235,-5.899502 0.79627,-0.0383 4.022455,-0.07887 4.862885,-0.04063 1.89972,0.08643 1.82006,3.597287 -0.0647,3.567977 -0.58417,-0.0091 -2.12115,0.01438 -2.77246,0.03888 z"
       id="path18997"
       sodipodi:nodetypes="csssscssscc" /></g></svg>
